<svg id="svg" version="1.1" xmlns="http://www.w3.org/2000/svg" xmlns:xlink="http://www.w3.org/1999/xlink" width="400" height="400" viewBox="0, 0, 400,400"><g id="svgg"><path id="path0" d="M0.000 200.000 L 0.000 400.000 200.000 400.000 L 400.000 400.000 400.000 200.000 L 400.000 0.000 200.000 0.000 L 0.000 0.000 0.000 200.000 M175.682 113.600 C 180.216 120.021,183.539 124.776,187.030 129.839 C 190.374 134.687,189.871 134.400,195.016 134.400 C 200.371 134.400,199.683 133.743,202.964 142.000 C 206.499 150.899,206.857 151.688,207.429 151.871 C 207.864 152.010,210.400 147.545,210.400 146.639 C 210.400 146.299,210.060 145.252,209.644 144.311 C 204.411 132.464,213.251 119.188,226.360 119.204 C 242.510 119.225,250.615 137.799,239.657 149.677 C 237.766 151.727,237.129 153.347,238.289 153.156 C 240.350 152.818,242.400 154.734,242.400 156.999 C 242.400 158.439,243.467 160.830,248.800 171.338 C 256.823 187.148,256.865 187.426,251.612 189.795 C 248.297 191.289,247.938 190.860,241.000 177.103 C 237.700 170.560,234.865 165.205,234.700 165.203 C 234.535 165.202,234.400 172.666,234.400 181.791 L 234.400 198.382 233.428 199.019 C 231.835 200.062,219.870 199.714,219.029 198.600 C 218.508 197.910,218.424 194.780,218.413 175.786 L 218.400 153.772 217.107 153.009 C 216.396 152.588,215.029 151.521,214.070 150.638 C 212.661 149.339,212.260 149.143,211.977 149.615 C 211.784 149.937,210.856 151.533,209.914 153.162 C 207.093 158.037,206.857 157.995,204.504 152.200 C 203.789 150.440,203.037 148.640,202.833 148.200 C 202.418 147.304,201.806 145.837,199.665 140.600 L 198.193 137.000 193.630 136.886 C 189.890 136.793,188.969 136.649,188.520 136.086 C 188.219 135.709,186.902 133.870,185.594 132.000 C 184.285 130.130,181.945 126.800,180.395 124.600 C 178.844 122.400,176.327 118.800,174.801 116.600 C 173.275 114.400,171.606 112.084,171.093 111.453 L 170.160 110.306 166.980 113.843 C 165.231 115.788,162.527 118.735,160.970 120.390 C 158.394 123.131,157.416 124.196,153.162 128.900 C 151.751 130.460,150.262 130.859,149.851 129.788 C 149.701 129.397,150.431 128.275,151.867 126.688 C 153.105 125.320,154.928 123.300,155.918 122.200 C 156.909 121.100,158.817 119.030,160.159 117.600 C 161.502 116.170,164.209 113.237,166.176 111.082 C 170.729 106.093,170.303 105.980,175.682 113.600 M221.161 122.359 C 215.472 124.583,211.837 129.105,210.837 135.202 C 210.412 137.794,210.499 138.548,211.685 142.600 C 212.644 145.875,215.861 149.628,219.000 151.132 C 222.126 152.631,222.878 152.800,226.400 152.800 C 229.922 152.800,230.674 152.631,233.800 151.132 C 240.520 147.911,244.281 137.964,241.185 131.600 C 241.025 131.270,240.647 130.473,240.347 129.828 C 237.423 123.563,227.732 119.790,221.161 122.359 M230.040 124.440 C 244.848 129.226,241.879 150.400,226.400 150.400 C 216.375 150.400,210.549 141.263,214.351 131.503 C 216.383 126.285,224.478 122.641,230.040 124.440 M177.346 127.229 L 178.400 128.058 178.387 162.929 C 178.376 193.408,178.298 197.901,177.770 198.600 C 177.207 199.345,176.697 199.400,170.400 199.400 C 164.103 199.400,163.593 199.345,163.030 198.600 C 162.377 197.736,162.061 128.718,162.706 127.766 C 163.829 126.107,175.381 125.683,177.346 127.229 M222.978 126.948 C 211.483 131.201,214.234 148.000,226.426 148.000 C 238.031 148.000,241.398 132.662,230.942 127.430 C 228.685 126.301,225.283 126.095,222.978 126.948 M165.200 163.000 L 165.200 196.800 170.400 196.800 L 175.600 196.800 175.600 163.000 L 175.600 129.200 170.400 129.200 L 165.200 129.200 165.200 163.000 M196.408 142.808 C 197.428 143.828,197.497 197.864,196.480 198.880 C 195.714 199.646,182.788 199.620,181.861 198.851 C 180.875 198.032,180.843 143.614,181.829 142.629 C 182.898 141.559,195.312 141.712,196.408 142.808 M158.869 144.662 C 159.946 145.637,160.014 197.959,158.939 198.851 C 158.012 199.620,145.086 199.646,144.320 198.880 C 143.530 198.090,143.558 145.615,144.349 144.661 C 145.169 143.673,157.776 143.674,158.869 144.662 M183.788 145.288 C 183.681 145.570,183.639 157.230,183.696 171.200 L 183.800 196.600 189.000 196.600 L 194.200 196.600 194.200 170.800 L 194.200 145.000 189.092 144.888 C 185.227 144.803,183.936 144.901,183.788 145.288 M146.497 171.700 L 146.600 196.600 151.800 196.600 L 157.000 196.600 157.103 171.700 L 157.206 146.800 151.800 146.800 L 146.394 146.800 146.497 171.700 M234.000 154.000 C 234.000 154.220,234.259 154.400,234.576 154.400 C 234.893 154.400,235.264 154.220,235.400 154.000 C 235.536 153.780,235.277 153.600,234.824 153.600 C 234.371 153.600,234.000 153.780,234.000 154.000 M221.200 175.883 L 221.200 196.823 226.500 196.712 L 231.800 196.600 231.904 179.402 C 231.992 164.917,231.915 161.970,231.412 160.714 C 230.821 159.236,230.950 157.002,231.652 156.568 C 233.155 155.639,231.870 155.091,228.700 155.309 C 226.885 155.434,224.455 155.403,223.300 155.240 L 221.200 154.943 221.200 175.883 M235.900 156.826 C 233.433 158.099,232.542 160.000,234.411 160.000 C 237.134 160.000,241.235 156.560,239.367 155.843 C 238.476 155.501,238.455 155.507,235.900 156.826 M238.100 161.596 C 236.347 162.664,236.081 161.904,242.920 175.400 L 249.000 187.400 250.311 187.340 C 253.887 187.176,253.776 186.716,246.786 172.786 C 240.337 159.932,240.495 160.136,238.100 161.596 M215.371 162.200 C 216.278 163.402,216.277 197.400,215.370 198.600 C 214.613 199.602,201.290 199.850,200.320 198.880 C 199.767 198.328,199.298 166.043,199.803 163.279 C 200.147 161.394,200.934 161.212,208.284 161.312 C 214.242 161.393,214.816 161.465,215.371 162.200 M202.587 164.489 C 202.479 164.771,202.438 172.111,202.495 180.801 L 202.600 196.600 207.800 196.600 L 213.000 196.600 213.000 180.400 L 213.000 164.200 207.892 164.088 C 204.024 164.003,202.736 164.100,202.587 164.489 M159.200 205.062 L 161.400 205.800 161.518 208.500 C 161.657 211.675,161.386 211.797,159.448 209.433 C 153.727 202.451,141.141 204.486,140.498 212.496 C 140.174 216.526,142.238 218.131,152.586 221.893 C 161.637 225.184,164.915 229.099,163.425 234.843 C 162.584 238.083,159.049 241.605,156.000 242.240 C 155.450 242.355,154.698 242.611,154.328 242.810 C 151.692 244.229,146.023 243.593,141.400 241.360 C 137.243 239.353,137.078 239.172,136.878 236.407 C 136.664 233.448,137.559 232.677,138.933 234.635 C 145.371 243.808,158.733 244.446,160.595 235.669 C 161.590 230.977,159.217 228.797,148.768 224.804 C 138.694 220.954,135.606 217.492,137.192 211.827 C 139.032 205.258,149.864 201.928,159.200 205.062 M233.200 209.200 C 235.623 211.623,232.157 215.297,229.454 213.171 C 227.421 211.572,228.581 208.400,231.200 208.400 C 231.867 208.400,232.756 208.756,233.200 209.200 M215.307 215.352 C 220.667 216.965,221.267 218.422,221.566 230.536 C 221.819 240.760,221.852 240.908,224.105 241.714 C 225.420 242.184,223.522 242.611,219.668 242.713 C 215.714 242.817,213.235 242.331,214.695 241.738 C 216.966 240.814,216.991 240.711,217.128 231.336 C 217.264 222.051,217.019 220.156,215.462 218.462 C 213.430 216.250,208.992 215.402,205.810 216.618 L 203.945 217.330 204.072 228.365 C 204.209 240.165,204.340 240.969,206.212 241.439 C 208.827 242.095,206.663 242.789,202.000 242.789 C 197.370 242.789,195.171 242.096,197.749 241.448 C 199.537 241.000,199.800 239.429,199.800 229.200 C 199.800 218.971,199.537 217.400,197.749 216.952 C 196.981 216.759,196.455 216.144,196.900 215.958 C 197.057 215.893,210.435 214.919,212.036 214.856 C 212.826 214.825,214.298 215.048,215.307 215.352 M186.720 216.423 C 196.498 221.309,196.195 237.607,186.241 242.242 C 176.985 246.552,167.800 240.056,167.800 229.200 C 167.800 218.056,177.236 211.684,186.720 216.423 M258.765 216.401 C 263.874 219.293,262.611 222.565,255.908 223.799 C 248.669 225.132,244.954 227.439,243.802 231.317 C 240.820 241.360,250.675 245.523,255.713 236.349 C 256.739 234.480,257.764 228.472,257.513 225.800 C 257.414 224.747,257.539 224.584,258.535 224.470 C 261.122 224.174,262.000 226.777,262.000 234.744 C 262.000 240.026,262.293 241.010,264.078 241.729 C 264.881 242.052,263.642 242.786,262.280 242.794 C 259.652 242.808,258.181 241.217,257.652 237.788 L 257.346 235.800 256.703 237.276 C 252.516 246.897,239.218 244.862,239.218 234.600 C 239.218 229.264,243.583 225.025,250.000 224.131 C 250.770 224.024,251.760 223.790,252.200 223.610 C 252.640 223.431,253.862 222.978,254.917 222.603 C 260.279 220.696,257.824 215.951,251.516 216.032 C 246.847 216.092,244.045 218.642,245.897 221.147 C 247.695 223.578,243.911 225.338,242.029 222.946 C 240.176 220.590,241.822 217.091,245.400 215.781 C 248.195 214.758,256.546 215.146,258.765 216.401 M233.253 227.200 C 233.520 239.232,233.713 240.504,235.392 241.269 C 237.582 242.267,236.130 242.787,231.133 242.795 C 226.509 242.802,225.201 242.275,227.378 241.283 C 229.031 240.530,229.272 238.710,229.130 228.064 C 228.990 217.573,228.995 217.597,226.695 216.662 C 225.494 216.174,227.575 215.601,230.200 215.697 L 233.000 215.800 233.253 227.200 M177.015 217.109 C 173.408 219.091,171.600 223.129,171.600 229.200 C 171.600 245.080,187.090 247.532,189.646 232.056 C 191.393 221.475,184.314 213.098,177.015 217.109 M135.200 257.173 C 135.200 257.378,134.838 257.661,134.396 257.801 C 132.317 258.461,132.200 259.412,132.200 275.600 C 132.200 291.811,132.333 292.967,134.251 293.448 C 135.447 293.749,135.469 294.235,134.300 294.548 C 131.628 295.264,123.565 294.522,125.495 293.738 C 125.767 293.627,126.397 293.207,126.895 292.804 L 127.800 292.071 127.800 275.803 L 127.800 259.534 126.500 258.373 C 124.701 256.766,124.620 256.800,130.200 256.800 C 133.026 256.800,135.200 256.962,135.200 257.173 M151.211 257.413 C 154.800 261.737,149.347 269.419,140.180 272.953 C 133.350 275.585,133.066 275.900,136.505 277.024 C 141.390 278.622,142.798 279.813,146.621 285.573 C 149.634 290.113,151.987 292.602,153.847 293.215 C 156.407 294.060,155.291 294.800,151.456 294.800 C 148.136 294.800,147.849 294.550,143.241 287.666 C 139.470 282.031,136.676 278.873,134.643 277.947 C 131.683 276.598,132.457 274.681,136.886 272.388 C 146.405 267.462,148.994 263.704,147.005 257.700 C 146.629 256.567,150.301 256.317,151.211 257.413 M166.800 257.006 C 166.800 257.119,166.240 257.712,165.555 258.324 C 162.979 260.626,162.696 285.092,165.190 289.980 C 167.766 295.030,175.140 295.927,179.085 291.670 C 181.371 289.204,181.400 288.980,181.400 273.982 C 181.400 259.068,181.289 258.262,179.159 257.705 C 177.106 257.168,178.913 256.800,183.600 256.800 C 188.430 256.800,190.012 257.162,187.989 257.803 C 185.917 258.461,185.815 259.143,185.600 273.782 C 185.405 287.028,185.375 287.452,184.469 289.291 C 180.224 297.910,163.526 297.152,160.424 288.200 C 160.015 287.020,159.808 283.048,159.635 273.067 L 159.400 259.533 158.100 258.372 C 156.301 256.766,156.220 256.800,161.800 256.800 C 164.550 256.800,166.800 256.893,166.800 257.006 M217.923 259.157 C 218.078 261.872,217.531 262.529,216.359 261.039 C 214.795 259.051,209.001 257.640,202.300 257.616 L 198.000 257.600 198.000 265.209 L 198.000 272.818 198.989 272.171 C 200.426 271.229,203.521 271.390,206.812 272.577 C 210.260 273.821,211.563 273.859,212.967 272.754 C 214.310 271.698,214.662 272.002,213.986 273.634 C 212.648 276.865,208.889 277.265,203.780 274.721 C 200.924 273.299,200.241 273.102,199.305 273.431 L 198.200 273.819 198.093 283.769 L 197.986 293.719 203.493 293.483 C 211.605 293.135,215.973 291.640,216.640 288.982 C 217.269 286.477,218.109 288.595,217.922 292.217 L 217.800 294.600 205.400 294.641 C 198.580 294.664,192.505 294.605,191.900 294.510 C 190.523 294.293,190.481 293.767,191.814 293.432 C 193.705 292.958,193.800 292.114,193.800 275.800 C 193.800 259.523,193.720 258.802,191.808 257.931 C 189.617 256.933,191.299 256.793,204.300 256.895 L 217.800 257.000 217.923 259.157 M246.400 259.400 C 246.400 262.069,246.047 262.573,245.113 261.240 C 243.958 259.591,237.059 257.108,235.400 257.744 C 234.881 257.944,234.802 259.943,234.813 272.487 C 234.830 290.992,235.046 292.796,237.357 293.755 C 238.564 294.256,236.219 294.788,232.800 294.788 C 229.299 294.788,227.019 294.256,228.295 293.738 C 228.567 293.627,229.197 293.207,229.695 292.804 L 230.600 292.071 230.716 274.836 C 230.826 258.494,230.795 257.600,230.116 257.607 C 227.170 257.635,221.389 259.974,220.966 261.309 C 220.545 262.634,219.803 261.777,219.676 259.820 C 219.466 256.571,218.441 256.800,233.187 256.800 L 246.400 256.800 246.400 259.400 M275.200 259.600 C 275.200 262.781,275.131 262.855,273.726 261.185 C 271.849 258.955,265.688 257.467,259.200 257.677 L 255.400 257.800 255.291 265.100 C 255.231 269.115,255.288 272.400,255.417 272.400 C 255.547 272.400,256.021 272.203,256.471 271.962 C 257.830 271.235,261.010 271.494,264.012 272.577 C 267.426 273.808,268.935 273.865,270.000 272.800 C 271.008 271.792,271.200 271.797,271.200 272.826 C 271.200 276.619,266.477 277.493,260.941 274.724 C 258.113 273.310,257.420 273.109,256.495 273.434 L 255.400 273.819 255.400 283.610 L 255.400 293.400 258.600 293.521 C 266.583 293.824,273.255 291.778,274.222 288.730 C 274.749 287.071,275.200 288.199,275.200 291.173 C 275.200 293.849,275.090 294.379,274.500 294.554 C 273.949 294.718,250.554 294.618,248.500 294.443 C 247.647 294.370,247.950 293.699,248.949 293.448 C 250.871 292.966,251.000 291.827,251.000 275.382 C 251.000 258.938,250.943 258.480,248.811 257.803 C 246.321 257.013,249.038 256.800,261.600 256.800 L 275.200 256.800 275.200 259.600 M97.600 309.720 C 97.600 310.006,97.384 310.456,97.120 310.720 C 96.747 311.093,96.842 311.200,97.549 311.200 C 99.344 311.200,98.386 312.586,96.497 312.723 C 93.964 312.907,93.942 314.691,96.469 314.877 C 98.855 315.053,98.994 316.000,96.633 316.000 C 94.863 316.000,94.800 316.041,94.800 317.200 C 94.800 318.356,94.867 318.400,96.600 318.400 C 99.097 318.400,98.865 319.087,96.300 319.286 C 93.182 319.528,93.200 319.548,93.200 315.790 C 93.200 311.800,93.390 311.200,94.655 311.200 C 95.214 311.200,95.735 310.903,95.883 310.500 C 96.320 309.317,97.600 308.735,97.600 309.720 M72.400 315.424 C 72.400 318.514,72.291 319.200,71.800 319.200 C 71.179 319.200,70.862 312.072,71.456 311.478 C 72.124 310.809,72.400 311.960,72.400 315.424 M78.239 314.053 C 80.057 316.529,80.333 316.497,80.480 313.795 C 80.678 310.159,81.390 311.262,81.514 315.398 C 81.655 320.053,81.069 320.375,78.637 316.981 C 76.683 314.255,76.400 314.257,76.400 317.000 C 76.400 318.689,76.261 319.200,75.800 319.200 C 75.310 319.200,75.200 318.519,75.200 315.467 C 75.200 310.393,75.462 310.271,78.239 314.053 M89.626 311.614 C 91.138 312.423,90.546 313.118,88.538 312.892 C 86.379 312.649,85.600 313.314,85.600 315.400 C 85.600 317.616,87.999 319.248,89.174 317.831 C 89.854 317.012,89.433 316.000,88.413 316.000 C 87.966 316.000,87.600 315.820,87.600 315.600 C 87.600 315.380,88.320 315.200,89.200 315.200 L 90.800 315.200 90.800 317.010 C 90.800 319.854,87.005 320.614,84.900 318.191 C 82.042 314.902,85.856 309.596,89.626 311.614 M107.412 312.105 C 107.537 312.602,107.585 314.355,107.519 316.000 C 107.366 319.843,106.744 320.062,104.574 317.034 C 102.603 314.285,102.400 314.281,102.400 317.000 C 102.400 318.933,102.303 319.200,101.600 319.200 C 100.856 319.200,100.800 318.933,100.800 315.400 C 100.800 310.633,101.386 310.388,104.031 314.049 L 105.800 316.499 105.904 315.149 C 106.189 311.450,106.892 310.032,107.412 312.105 M111.412 312.105 C 111.927 314.155,111.437 318.984,110.700 319.125 C 109.979 319.263,109.616 313.466,110.243 311.833 C 110.592 310.924,111.148 311.053,111.412 312.105 M119.126 311.900 C 119.029 312.411,118.534 312.633,117.297 312.723 C 114.764 312.907,114.742 314.691,117.269 314.877 C 119.655 315.053,119.794 316.000,117.433 316.000 C 115.663 316.000,115.600 316.041,115.600 317.200 C 115.600 318.356,115.667 318.400,117.400 318.400 C 119.897 318.400,119.665 319.087,117.100 319.286 C 113.982 319.528,114.000 319.548,114.000 315.790 C 114.000 311.224,114.015 311.200,116.872 311.200 C 118.929 311.200,119.240 311.297,119.126 311.900 M128.000 314.571 C 128.000 318.597,127.058 319.873,124.400 319.448 C 122.216 319.099,121.600 318.016,121.600 314.526 C 121.600 310.165,122.898 310.321,123.200 314.719 C 123.565 320.031,126.800 319.624,126.800 314.267 C 126.800 312.873,126.920 311.613,127.067 311.467 C 127.782 310.751,128.000 311.477,128.000 314.571 M135.746 312.029 C 136.833 312.884,137.126 314.314,136.369 315.071 C 136.061 315.379,136.080 315.973,136.433 317.153 C 136.705 318.062,136.817 318.916,136.681 319.052 C 136.225 319.508,135.200 318.832,135.200 318.075 C 135.200 315.725,132.267 315.399,132.074 317.728 C 131.819 320.820,130.617 319.440,130.483 315.901 C 130.306 311.210,132.579 309.538,135.746 312.029 M144.506 311.439 C 145.134 312.067,144.205 312.800,142.781 312.800 C 140.226 312.800,140.157 314.661,142.703 314.878 C 144.811 315.057,144.827 315.924,142.725 316.076 C 139.988 316.273,140.134 318.144,142.900 318.322 C 145.442 318.485,145.318 319.082,142.700 319.290 C 139.453 319.548,139.200 319.292,139.200 315.760 C 139.200 311.663,139.499 311.200,142.147 311.200 C 143.313 311.200,144.374 311.308,144.506 311.439 M155.750 311.650 C 157.899 312.629,157.181 316.000,154.823 316.000 C 152.888 316.000,152.400 316.371,152.400 317.843 C 152.400 318.783,152.215 319.200,151.800 319.200 C 151.172 319.200,150.865 312.068,151.467 311.467 C 151.894 311.040,154.672 311.159,155.750 311.650 M164.311 311.823 C 165.241 312.474,165.491 314.120,164.821 315.179 C 164.586 315.552,164.659 316.246,165.028 317.128 C 165.770 318.906,165.750 319.200,164.880 319.200 C 164.423 319.200,163.979 318.697,163.662 317.821 C 162.797 315.428,160.800 315.430,160.800 317.824 C 160.800 318.933,160.645 319.200,160.000 319.200 C 159.192 319.200,158.711 312.223,159.467 311.467 C 159.981 310.952,163.429 311.205,164.311 311.823 M173.187 311.793 C 176.627 313.572,175.241 319.400,171.377 319.400 C 168.807 319.400,167.800 318.261,167.800 315.354 C 167.800 311.869,170.229 310.263,173.187 311.793 M179.514 315.785 C 179.609 319.389,179.516 320.230,178.952 320.853 C 178.041 321.860,176.800 321.829,176.800 320.800 C 176.800 320.360,177.051 320.000,177.357 320.000 C 178.208 320.000,178.400 319.070,178.400 314.934 C 178.400 309.240,179.361 309.974,179.514 315.785 M187.200 312.000 C 187.200 312.665,186.933 312.800,185.624 312.800 C 184.757 312.800,183.931 312.988,183.789 313.218 C 183.339 313.947,184.449 314.800,185.849 314.800 C 187.943 314.800,187.640 315.922,185.503 316.077 C 182.478 316.296,183.015 318.381,186.100 318.394 C 188.259 318.403,187.950 319.089,185.700 319.283 C 182.380 319.569,182.400 319.592,182.400 315.420 C 182.400 311.091,182.331 311.200,185.067 311.200 C 186.933 311.200,187.200 311.300,187.200 312.000 M195.400 312.000 C 195.400 312.357,194.955 312.651,194.300 312.727 C 193.202 312.853,193.200 312.859,193.200 316.056 C 193.200 320.767,191.862 320.625,191.683 315.896 C 191.571 312.928,191.527 312.800,190.607 312.800 C 189.558 312.800,189.005 312.238,189.410 311.583 C 189.841 310.887,195.400 311.273,195.400 312.000 M202.800 316.424 C 202.800 320.403,202.700 321.200,202.200 321.200 C 201.578 321.200,201.255 312.078,201.856 311.478 C 202.555 310.779,202.800 312.065,202.800 316.424 M214.451 311.827 C 218.991 314.174,215.929 320.527,210.800 319.400 L 209.600 319.136 209.600 315.435 C 209.600 313.399,209.720 311.613,209.867 311.467 C 210.363 310.971,213.232 311.196,214.451 311.827 M224.043 314.416 C 226.309 319.103,226.377 320.805,224.200 318.400 C 223.717 317.867,222.968 317.600,221.952 317.600 C 220.838 317.600,220.313 317.815,220.000 318.400 C 218.827 320.591,218.098 319.167,219.147 316.733 C 221.953 310.222,222.003 310.198,224.043 314.416 M233.600 311.973 C 233.600 312.520,233.277 312.784,232.500 312.873 C 231.417 312.998,231.398 313.049,231.283 316.100 C 231.195 318.452,231.030 319.200,230.600 319.200 C 230.170 319.200,230.005 318.452,229.917 316.100 C 229.802 313.049,229.783 312.998,228.700 312.873 C 225.883 312.549,227.415 311.200,230.600 311.200 C 233.299 311.200,233.600 311.278,233.600 311.973 M240.843 314.416 C 243.109 319.103,243.177 320.805,241.000 318.400 C 240.517 317.867,239.768 317.600,238.752 317.600 C 237.638 317.600,237.113 317.815,236.800 318.400 C 235.627 320.591,234.898 319.167,235.947 316.733 C 238.753 310.222,238.803 310.198,240.843 314.416 M254.557 315.519 C 256.245 319.402,256.207 319.200,255.247 319.200 C 254.830 319.200,254.400 318.843,254.284 318.400 C 254.113 317.748,253.738 317.600,252.252 317.600 C 250.838 317.600,250.332 317.780,250.000 318.400 C 249.548 319.244,248.400 319.506,248.400 318.765 C 248.400 318.008,251.248 311.818,251.734 311.517 C 252.426 311.089,252.962 311.849,254.557 315.519 M260.866 313.588 C 263.005 316.535,263.200 316.553,263.200 313.800 C 263.200 311.867,263.297 311.600,264.000 311.600 C 264.744 311.600,264.800 311.867,264.800 315.400 C 264.800 320.170,264.191 320.433,261.546 316.809 L 259.800 314.419 259.600 316.709 C 259.281 320.362,258.235 319.876,258.081 316.005 C 257.862 310.530,258.343 310.113,260.866 313.588 M272.957 315.519 C 274.645 319.402,274.607 319.200,273.647 319.200 C 273.230 319.200,272.800 318.843,272.684 318.400 C 272.513 317.748,272.138 317.600,270.652 317.600 C 269.238 317.600,268.732 317.780,268.400 318.400 C 267.948 319.244,266.800 319.506,266.800 318.765 C 266.800 318.008,269.648 311.818,270.134 311.517 C 270.826 311.089,271.362 311.849,272.957 315.519 M277.757 311.833 C 277.891 312.181,278.000 313.687,278.000 315.180 L 278.000 317.895 279.633 318.114 C 282.242 318.464,282.348 319.064,279.871 319.466 C 276.749 319.973,276.400 319.606,276.400 315.825 C 276.400 312.451,276.616 311.200,277.200 311.200 C 277.373 311.200,277.624 311.485,277.757 311.833 M285.589 313.898 C 285.985 314.544,286.074 314.522,286.710 313.609 C 289.036 310.268,290.224 310.934,288.032 314.350 C 287.218 315.618,286.800 316.778,286.800 317.764 C 286.800 319.975,285.485 319.621,285.178 317.328 C 285.055 316.414,284.449 314.937,283.831 314.044 C 282.374 311.942,282.685 310.337,284.208 312.098 C 284.730 312.701,285.352 313.511,285.589 313.898 M295.792 311.669 C 297.353 312.380,296.782 313.018,294.719 312.869 C 292.227 312.688,291.724 313.775,293.904 314.632 C 296.384 315.606,296.600 315.815,296.600 317.238 C 296.600 319.434,292.098 320.563,291.330 318.561 C 290.982 317.655,291.432 317.463,292.791 317.937 C 295.048 318.724,296.284 317.218,294.100 316.342 C 291.365 315.245,291.200 315.097,291.200 313.755 C 291.200 311.586,293.408 310.583,295.792 311.669 M304.727 311.882 C 304.655 312.258,304.147 312.670,303.598 312.799 C 302.654 313.021,302.594 313.201,302.483 316.117 C 302.380 318.848,302.279 319.200,301.600 319.200 C 300.921 319.200,300.820 318.848,300.717 316.117 C 300.606 313.201,300.546 313.021,299.602 312.799 C 297.004 312.189,298.239 311.200,301.600 311.200 C 304.456 311.200,304.842 311.284,304.727 311.882 M312.157 311.833 C 312.543 312.838,312.427 320.539,312.016 321.188 C 311.324 322.283,311.001 321.150,310.862 317.147 C 310.687 312.100,311.298 309.594,312.157 311.833 M323.781 311.664 C 324.342 311.920,324.812 312.325,324.827 312.564 C 325.249 319.317,325.007 319.646,319.900 319.254 C 319.182 319.199,318.790 312.144,319.467 311.467 C 319.899 311.034,322.678 311.162,323.781 311.664 M329.012 312.105 C 329.527 314.155,329.037 318.984,328.300 319.125 C 327.579 319.263,327.216 313.466,327.843 311.833 C 328.192 310.924,328.748 311.053,329.012 312.105 M132.286 313.048 C 131.383 313.951,132.031 314.846,133.500 314.724 C 134.692 314.625,135.000 314.436,135.000 313.800 C 135.000 312.982,132.926 312.407,132.286 313.048 M152.544 313.401 C 152.190 314.325,152.908 314.885,154.251 314.731 C 155.090 314.635,155.400 314.384,155.400 313.800 C 155.400 312.740,152.930 312.395,152.544 313.401 M160.800 313.800 C 160.800 314.967,162.724 315.255,163.585 314.218 C 164.296 313.361,163.739 312.800,162.176 312.800 C 160.975 312.800,160.800 312.927,160.800 313.800 M169.614 313.574 C 168.666 315.346,169.681 318.400,171.218 318.400 C 171.991 318.400,173.600 316.446,173.600 315.507 C 173.600 313.189,170.599 311.733,169.614 313.574 M211.200 315.400 L 211.200 318.000 212.400 318.000 C 214.127 318.000,215.351 316.653,215.039 315.096 C 214.691 313.354,214.091 312.800,212.551 312.800 L 211.200 312.800 211.200 315.400 M320.590 313.216 C 320.434 313.469,320.565 313.937,320.883 314.255 C 321.578 314.949,323.770 314.315,323.502 313.498 C 323.288 312.846,320.958 312.621,320.590 313.216 M221.600 314.334 C 221.600 314.554,221.491 315.019,221.357 315.367 C 221.182 315.825,221.355 316.000,221.985 316.000 C 222.651 316.000,222.826 315.796,222.728 315.131 C 222.601 314.271,221.600 313.563,221.600 314.334 M238.400 314.334 C 238.400 314.554,238.291 315.019,238.157 315.367 C 237.982 315.825,238.155 316.000,238.785 316.000 C 239.451 316.000,239.626 315.796,239.528 315.131 C 239.401 314.271,238.400 313.563,238.400 314.334 M251.620 314.763 C 251.038 315.850,251.084 316.000,252.000 316.000 C 252.525 316.000,252.800 315.733,252.800 315.224 C 252.800 314.110,252.113 313.842,251.620 314.763 M270.020 314.763 C 269.438 315.850,269.484 316.000,270.400 316.000 C 270.925 316.000,271.200 315.733,271.200 315.224 C 271.200 314.110,270.513 313.842,270.020 314.763 M320.686 316.248 C 320.118 316.815,320.417 317.952,321.200 318.200 C 322.507 318.615,323.664 318.050,323.523 317.066 C 323.399 316.190,321.337 315.596,320.686 316.248 " stroke="black" fill="#fbf3fb"></path></g></svg>